<svg xmlns="http://www.w3.org/2000/svg" xmlns:xlink="http://www.w3.org/1999/xlink" viewBox="0 0 311.89 100.48"><defs><style>.cls-1{fill:none;clip-rule:evenodd;}.cls-2{fill:#00803d;}.cls-3{fill:#fcba12;}.cls-4{clip-path:url(#clip-path);}.cls-5{fill:url(#linear-gradient);}.cls-6{clip-path:url(#clip-path-2);}.cls-7{fill:url(#linear-gradient-2);}.cls-8{clip-path:url(#clip-path-3);}.cls-9{fill:url(#linear-gradient-3);}.cls-10{clip-path:url(#clip-path-4);}.cls-11{fill:url(#linear-gradient-4);}.cls-12{clip-path:url(#clip-path-5);}.cls-13{fill:url(#linear-gradient-5);}.cls-14{fill:#bf1f2e;}</style><clipPath id="clip-path"><polygon class="cls-1" points="264.44 36.9 269.55 44.01 269.55 20.41 264.44 36.9"/></clipPath><linearGradient id="linear-gradient" x1="-55.86" y1="75.9" x2="-55.1" y2="75.9" gradientTransform="translate(5710.24 4009.43) rotate(90) scale(71.72)" gradientUnits="userSpaceOnUse"><stop offset="0" stop-color="#ffcb05"/><stop offset="1" stop-color="#ed1c24"/></linearGradient><clipPath id="clip-path-2"><polygon class="cls-1" points="248.87 36.66 260.37 47.97 269.49 43.84 248.87 36.63 248.87 36.66"/></clipPath><linearGradient id="linear-gradient-2" x1="-55.9" y1="76.86" x2="-54.94" y2="76.86" gradientTransform="matrix(57.78, 0, 0, 69.07, 3461.94, -5266.26)" xlink:href="#linear-gradient"/><clipPath id="clip-path-3"><polygon class="cls-1" points="269.38 53.69 282.96 62.9 283.04 62.9 269.49 43.84 269.38 53.69"/></clipPath><linearGradient id="linear-gradient-3" x1="-56.77" y1="77.26" x2="-55.85" y2="77.26" gradientTransform="matrix(56.01, 0, 0, 67.4, 3429.33, -5154.13)" xlink:href="#linear-gradient"/><clipPath id="clip-path-4"><polygon class="cls-1" points="291.17 37.38 291.17 37.3 269.42 43.83 279.12 46.91 291.17 37.38"/></clipPath><linearGradient id="linear-gradient-4" x1="-59.74" y1="75.75" x2="-58.74" y2="75.75" gradientTransform="translate(-1018.1 3709.24) rotate(180) scale(21.92 48.41)" xlink:href="#linear-gradient"/><clipPath id="clip-path-5"><polygon class="cls-1" points="259.91 47.53 255.41 62.83 269.44 43.92 269.35 43.9 259.91 47.53"/></clipPath><linearGradient id="linear-gradient-5" x1="-57.09" y1="77.38" x2="-56.15" y2="77.38" gradientTransform="matrix(38.55, 0, 0, 59.69, 2444.66, -4565.17)" xlink:href="#linear-gradient"/></defs><g id="Layer_2" data-name="Layer 2"><g id="Layer_1-2" data-name="Layer 1"><path class="cls-2" d="M137.24,61.42H125.39l-15.5-50.56h10.83l10.61,35.55h.16l10.74-35.55h10.83Z"/><path class="cls-2" d="M156.11,10.86h10.41l19.94,33.92h.13V10.86h9.82V61.42H185.9L166.06,27.56h-.13V61.42h-9.82Z"/><path class="cls-2" d="M242.11,41.46q0,19.8-20.36,19.8t-20.33-19.8V10.86h10.51v30.6a20.42,20.42,0,0,0,.32,3.94,9.4,9.4,0,0,0,1.41,3.44q2.31,3.3,8.09,3.3c3.63,0,6.21-.87,7.73-2.59s2.16-4.31,2.16-8.09V10.86h10.47Z"/><polygon class="cls-3" points="264.51 36.83 269.64 20.46 275.67 37.16 291.43 37.16 279.12 46.91 283.11 63 269.44 53.53 255.44 62.87 259.98 47.24 248.95 36.69 264.51 36.83"/><g class="cls-4"><rect class="cls-5" x="256.85" y="22.06" width="20.3" height="20.3" transform="translate(55.43 198.24) rotate(-45)"/></g><g class="cls-6"><rect class="cls-7" x="247.56" y="33.46" width="23.25" height="17.68" transform="translate(1.08 90.74) rotate(-19.9)"/></g><g class="cls-8"><rect class="cls-9" x="264.91" y="43.69" width="22.59" height="19.37" transform="translate(131.16 294.41) rotate(-69.9)"/></g><g class="cls-10"><rect class="cls-11" x="269.42" y="37.3" width="21.76" height="9.6"/></g><g class="cls-12"><rect class="cls-13" x="251.89" y="44.81" width="21.08" height="17.1" transform="translate(164.31 302.54) rotate(-80)"/></g><path class="cls-3" d="M269.46,16.05a2.21,2.21,0,1,0,2.2,2.21,2.2,2.2,0,0,0-2.2-2.21m0,3.58a1.38,1.38,0,1,1,1.37-1.37A1.37,1.37,0,0,1,269.46,19.63Z"/><rect class="cls-3" x="255.61" y="11.2" width="27.7" height="4.92"/><rect class="cls-3" x="255.61" width="27.7" height="4.92"/><rect class="cls-14" x="257.85" y="2.01" width="23.23" height="11.93"/><path class="cls-2" d="M202.52,4.69a1.07,1.07,0,0,0,.25.79,1,1,0,0,0,.79.26,1.55,1.55,0,0,0,.71-.15,1,1,0,0,0,.45-.42,1.23,1.23,0,0,0,.16-.65,1,1,0,0,0-.1-.47,1.32,1.32,0,0,0-.29-.39,4.15,4.15,0,0,0-.57-.43,3.89,3.89,0,0,1-.56-.43,1.85,1.85,0,0,1-.35-.48,1.37,1.37,0,0,1-.13-.58,1.68,1.68,0,0,1,.26-.92,1.62,1.62,0,0,1,.73-.6A2.45,2.45,0,0,1,205,0a4.63,4.63,0,0,1,.77.06,4.32,4.32,0,0,1,.78.18l-.25,1.13h-.43a1.69,1.69,0,0,0-.12-.59.63.63,0,0,0-.28-.3,1.18,1.18,0,0,0-.5-.09,1.4,1.4,0,0,0-.66.15,1,1,0,0,0-.43.4,1.1,1.1,0,0,0-.15.57,1,1,0,0,0,.08.41,1.18,1.18,0,0,0,.26.35,4.73,4.73,0,0,0,.52.41,3.93,3.93,0,0,1,.68.53,1.48,1.48,0,0,1,.34.5,1.58,1.58,0,0,1,.11.61,1.77,1.77,0,0,1-.26.94,1.74,1.74,0,0,1-.75.64,2.53,2.53,0,0,1-1.09.23,7.08,7.08,0,0,1-.89-.07,6.76,6.76,0,0,1-.87-.16l.27-1.21Z"/><path class="cls-2" d="M207.57,5q0,.23-.06.33a1,1,0,0,0,0,.17.41.41,0,0,0,0,.21.4.4,0,0,0,.14.11.93.93,0,0,0,.31.06l0,.22h-1.4l.68-3a3.2,3.2,0,0,0,.08-.41,1.29,1.29,0,0,0,0-.25.45.45,0,0,0,0-.19.24.24,0,0,0-.13-.11,1,1,0,0,0-.31,0l0-.24,1.1,0h.27ZM208.69.15l-.21.85h-.8l.21-.85Z"/><path class="cls-2" d="M212.92,6.06H211.5l.57-2.23c0-.15.07-.3.11-.48a2.68,2.68,0,0,0,0-.46.74.74,0,0,0-.11-.45.42.42,0,0,0-.35-.13.69.69,0,0,0-.4.14,2,2,0,0,0-.46.43,3.15,3.15,0,0,0-.41.57,2.45,2.45,0,0,0-.25.71l-.41,1.9h-.78l.68-3c0-.07,0-.16.07-.3a2.23,2.23,0,0,0,0-.33.5.5,0,0,0,0-.19.3.3,0,0,0-.14-.1,1.46,1.46,0,0,0-.31,0l0-.24,1,0h.25L210.39,3l.06,0a3.85,3.85,0,0,1,.85-.89,1.38,1.38,0,0,1,.82-.3.89.89,0,0,1,.67.24,1,1,0,0,1,.22.69,2.26,2.26,0,0,1,0,.35q0,.18-.06.33L212.54,5a2.39,2.39,0,0,0-.08.5.3.3,0,0,0,.19.32.88.88,0,0,0,.31.06Z"/><path class="cls-2" d="M216.93,2.92a2.2,2.2,0,0,0-.06-.49.4.4,0,0,0-.15-.22.51.51,0,0,0-.3-.07,1.11,1.11,0,0,0-.82.35,2.53,2.53,0,0,0-.59,1,3.52,3.52,0,0,0-.23,1.24,2,2,0,0,0,0,.35.65.65,0,0,0,.12.28.49.49,0,0,0,.22.18.73.73,0,0,0,.35.07,1.58,1.58,0,0,0,.71-.15,2.51,2.51,0,0,0,.63-.48l.28.27a3,3,0,0,1-.86.67,2,2,0,0,1-.92.21,1.29,1.29,0,0,1-1-.38A1.6,1.6,0,0,1,214,4.66a3.37,3.37,0,0,1,.19-1,2.76,2.76,0,0,1,.52-1,2.29,2.29,0,0,1,.82-.64,2.38,2.38,0,0,1,1-.21,5.57,5.57,0,0,1,.63,0,4.45,4.45,0,0,1,.48.1l-.23,1Z"/><path class="cls-2" d="M221.18,5.18a3.46,3.46,0,0,1-.64.56,2.16,2.16,0,0,1-.61.3,2.43,2.43,0,0,1-.68.09,1.49,1.49,0,0,1-.62-.12,1.08,1.08,0,0,1-.42-.3,1.25,1.25,0,0,1-.25-.47,1.81,1.81,0,0,1-.08-.58,3.15,3.15,0,0,1,.17-1,2.82,2.82,0,0,1,.53-1,2.38,2.38,0,0,1,.84-.67,2.51,2.51,0,0,1,1.05-.23,1.34,1.34,0,0,1,.82.21.83.83,0,0,1,.27.68,1.18,1.18,0,0,1-.72,1.11,4.76,4.76,0,0,1-2.14.38,3.27,3.27,0,0,0,0,.57,1,1,0,0,0,.18.66.79.79,0,0,0,.61.21,1.69,1.69,0,0,0,.75-.17,3.18,3.18,0,0,0,.71-.54Zm-2.4-1.39c.28,0,.52,0,.73,0a3.12,3.12,0,0,0,.54-.12,1.42,1.42,0,0,0,.37-.17,1,1,0,0,0,.24-.22.68.68,0,0,0,.12-.26,1.18,1.18,0,0,0,0-.27.66.66,0,0,0-.12-.42.49.49,0,0,0-.38-.15,1,1,0,0,0-.62.22,1.82,1.82,0,0,0-.54.59A3.2,3.2,0,0,0,218.78,3.79Z"/><path class="cls-2" d="M226.52,4.79a2.46,2.46,0,0,0-.09.51.35.35,0,0,0,.1.26.64.64,0,0,0,.31.13c.15,0,.37,0,.68,0l-.07.32h-3.18l.07-.32.58,0a1.31,1.31,0,0,0,.33-.09.56.56,0,0,0,.2-.12.77.77,0,0,0,.13-.2,2,2,0,0,0,.12-.37l.72-3.18a2.84,2.84,0,0,1,.06-.29,1.41,1.41,0,0,0,0-.18.22.22,0,0,0-.07-.19.28.28,0,0,0-.16-.05,1.05,1.05,0,0,0-.36.11,8,8,0,0,0-.71.38L225,1.16,227.31,0h.31l-.13.51q-.08.28-.15.66Z"/><path class="cls-2" d="M232.22,3.23a2.75,2.75,0,0,1-.65.31,2.24,2.24,0,0,1-.68.1,1.34,1.34,0,0,1-.73-.18,1.15,1.15,0,0,1-.49-.51,1.71,1.71,0,0,1-.17-.77,2.78,2.78,0,0,1,.08-.62,1.86,1.86,0,0,1,.25-.6,2,2,0,0,1,.43-.5,2,2,0,0,1,.62-.34,2.45,2.45,0,0,1,.78-.12,1.73,1.73,0,0,1,.71.14,1.48,1.48,0,0,1,.52.4,1.88,1.88,0,0,1,.3.6,2.58,2.58,0,0,1,.11.76,4.46,4.46,0,0,1-.09.84,4.72,4.72,0,0,1-.22.77,4.65,4.65,0,0,1-.37.74,3.74,3.74,0,0,1-.48.63,4,4,0,0,1-.58.52,4.24,4.24,0,0,1-.65.38,3,3,0,0,1-.72.24,3.67,3.67,0,0,1-.74.11l-.17-.24,0-.22a3.62,3.62,0,0,0,1.35-.35,2.72,2.72,0,0,0,1-.79,4.57,4.57,0,0,0,.64-1.29Zm-1,0a1.64,1.64,0,0,0,.53-.09,1.76,1.76,0,0,0,.43-.23,1,1,0,0,0,.21-.21.94.94,0,0,0,.13-.36,3.62,3.62,0,0,0,0-.63,1.59,1.59,0,0,0-.25-1,.85.85,0,0,0-.73-.33,1,1,0,0,0-.64.24,1.45,1.45,0,0,0-.46.65,2.51,2.51,0,0,0-.17.92,1.18,1.18,0,0,0,.21.77A.88.88,0,0,0,231.2,3.2Z"/><path class="cls-2" d="M235.43,6.13a1.58,1.58,0,0,1-.71-.16,1,1,0,0,1-.47-.5,2.22,2.22,0,0,1-.16-.93,6.51,6.51,0,0,1,.11-1.11,7.78,7.78,0,0,1,.29-1.13,6.08,6.08,0,0,1,.45-1,3.65,3.65,0,0,1,.58-.73,2.19,2.19,0,0,1,.67-.45,1.72,1.72,0,0,1,.73-.16,1.65,1.65,0,0,1,.63.11,1.23,1.23,0,0,1,.42.32,1.31,1.31,0,0,1,.23.49,2.4,2.4,0,0,1,.07.62A6.76,6.76,0,0,1,238,3.45a5.28,5.28,0,0,1-.73,1.6,2.56,2.56,0,0,1-.88.83,1.91,1.91,0,0,1-.94.25m-.56-1.31a1.94,1.94,0,0,0,.06.55.54.54,0,0,0,.2.29.64.64,0,0,0,.36.09,1,1,0,0,0,.66-.31,3.25,3.25,0,0,0,.6-.93,9.2,9.2,0,0,0,.51-1.58,7.52,7.52,0,0,0,.23-1.67,1.26,1.26,0,0,0-.14-.67.53.53,0,0,0-.46-.22.94.94,0,0,0-.39.1,1.42,1.42,0,0,0-.44.39,3.5,3.5,0,0,0-.5.87,8.7,8.7,0,0,0-.36,1.09c-.08.3-.15.59-.2.88A5.35,5.35,0,0,0,234.87,4.82Z"/><path class="cls-2" d="M240.14,2.9a3,3,0,0,1,.69-.31,2.25,2.25,0,0,1,.68-.11,1.53,1.53,0,0,1,.69.16,1.24,1.24,0,0,1,.5.49,1.66,1.66,0,0,1,.18.8,2.87,2.87,0,0,1-.08.64,2.24,2.24,0,0,1-.25.6,2.08,2.08,0,0,1-.44.5,2.16,2.16,0,0,1-.62.33,2.31,2.31,0,0,1-.82.13A1.54,1.54,0,0,1,240,6a1.28,1.28,0,0,1-.5-.39,1.93,1.93,0,0,1-.3-.59,2.86,2.86,0,0,1-.1-.73,4,4,0,0,1,.06-.7,4,4,0,0,1,.22-.86,4.09,4.09,0,0,1,.52-1,4.3,4.3,0,0,1,.83-.82,4.5,4.5,0,0,1,1.07-.61A5,5,0,0,1,243,0l.16.24,0,.22a3.24,3.24,0,0,0-1.86.7,3.87,3.87,0,0,0-1.17,1.72Zm-.34,1.58a1.55,1.55,0,0,0,.25,1,.88.88,0,0,0,.74.31,1,1,0,0,0,.65-.22,1.41,1.41,0,0,0,.46-.64,2.4,2.4,0,0,0,.17-.92c0-.7-.3-1-.9-1a1.37,1.37,0,0,0-.29,0,1.71,1.71,0,0,0-.3.09,1.59,1.59,0,0,0-.29.15,1.83,1.83,0,0,0-.22.16.78.78,0,0,0-.1.15.48.48,0,0,0-.07.18c0,.07,0,.2-.07.39A3.17,3.17,0,0,0,239.8,4.48Z"/><path class="cls-2" d="M109.85,77.47H109V75.94h.86V72.17h4a4.07,4.07,0,0,1,3,1.15,4.77,4.77,0,0,1,1.22,3.49,5.13,5.13,0,0,1-1.06,3.39,3.92,3.92,0,0,1-3.19,1.35h-4Zm2.06-1.53H114v1.54h-2.09v2.34h1.83a2.14,2.14,0,0,0,1.61-.63,3,3,0,0,0,.72-2.19,3.69,3.69,0,0,0-.58-2.25,2.53,2.53,0,0,0-2.12-.85h-1.46Z"/><path class="cls-2" d="M122.1,72.17h2.11l3.49,9.38h-2.13l-.71-2.09h-3.5l-.72,2.09h-2.09Zm-.2,5.76h2.42l-1.17-3.45h0Zm2,5.82H122.3V82.51h1.63Z"/><path class="cls-2" d="M128.5,72.17h2.06v9.38H128.5Z"/><path class="cls-2" d="M136,72.17h2.06v3.6h3.77v-3.6h2.06v9.38h-2.06v-4h-3.77v4H136Z"/><path class="cls-2" d="M146.49,73.38a4.71,4.71,0,0,1,6.76,0,5.15,5.15,0,0,1,1.21,3.52,5,5,0,0,1-1.21,3.45,4.71,4.71,0,0,1-6.76,0,5,5,0,0,1-1.22-3.45A5.11,5.11,0,0,1,146.49,73.38Zm1.42,5.68a2.22,2.22,0,0,0,2,1,2.25,2.25,0,0,0,2-1,3.77,3.77,0,0,0,.57-2.16,4,4,0,0,0-.57-2.23,2.44,2.44,0,0,0-3.92,0,3.91,3.91,0,0,0-.58,2.23A3.7,3.7,0,0,0,147.91,79.06Zm2.77,4.69h-1.63V82.51h1.63Z"/><path class="cls-2" d="M162.08,75.32a1.78,1.78,0,0,0-.68-1.17,2.16,2.16,0,0,0-1.36-.47,2.22,2.22,0,0,0-2,1,4,4,0,0,0-.57,2.23,3.77,3.77,0,0,0,.57,2.16,2.24,2.24,0,0,0,2,1c1.24,0,1.94-.7,2.12-2.1h2a4.2,4.2,0,0,1-1.28,2.8,4,4,0,0,1-2.83,1,4.32,4.32,0,0,1-3.38-1.43,5,5,0,0,1-1.21-3.45,5.1,5.1,0,0,1,1.21-3.52A4.31,4.31,0,0,1,160,72a4.2,4.2,0,0,1,2.69.87,3.6,3.6,0,0,1,1.34,2.5Z"/><path class="cls-2" d="M177,82.43l-1.32-1.21a4.43,4.43,0,0,1-2.26.56A4.29,4.29,0,0,1,170,80.35a5,5,0,0,1-1.22-3.45A5.11,5.11,0,0,1,170,73.38a4.71,4.71,0,0,1,6.76,0A5.15,5.15,0,0,1,178,76.9a5.08,5.08,0,0,1-1.22,3.46l1.17,1.06Zm-2.68-4.35,1.06,1a3.68,3.68,0,0,0,.57-2.16,4,4,0,0,0-.57-2.23,2.44,2.44,0,0,0-3.92,0,3.91,3.91,0,0,0-.58,2.23,3.7,3.7,0,0,0,.58,2.16,2.22,2.22,0,0,0,2,1h.23l.24,0a.55.55,0,0,0,.35-.11l-.87-.8Z"/><path class="cls-2" d="M187.29,78q0,3.78-4,3.78t-4-3.78V72.17h2.06V78a4,4,0,0,0,.06.75A1.59,1.59,0,0,0,183.3,80a1.94,1.94,0,0,0,1.51-.5,2.2,2.2,0,0,0,.43-1.54V72.17h2Z"/><path class="cls-2" d="M189.86,73.38a4.7,4.7,0,0,1,6.75,0,5.11,5.11,0,0,1,1.22,3.52,5,5,0,0,1-1.22,3.45,4.7,4.7,0,0,1-6.75,0,5,5,0,0,1-1.22-3.45A5.11,5.11,0,0,1,189.86,73.38Zm1.41,5.68a2.24,2.24,0,0,0,2,1,2.26,2.26,0,0,0,2-1,3.77,3.77,0,0,0,.57-2.16,4,4,0,0,0-.57-2.23,2.45,2.45,0,0,0-3.93,0,4,4,0,0,0-.57,2.23A3.77,3.77,0,0,0,191.27,79.06Zm4.15-7.72h-1.15l-1-1-1,1H191l1.3-1.86h1.79Zm.2-1.33h-1l1.06-1.86h1.9Z"/><path class="cls-2" d="M205.45,75.32a1.8,1.8,0,0,0-.69-1.17,2.11,2.11,0,0,0-1.35-.47,2.22,2.22,0,0,0-2,1,4,4,0,0,0-.58,2.23,3.77,3.77,0,0,0,.58,2.16,2.24,2.24,0,0,0,2,1c1.24,0,1.94-.7,2.12-2.1h2a4.2,4.2,0,0,1-1.28,2.8,4,4,0,0,1-2.83,1A4.31,4.31,0,0,1,200,80.35a5,5,0,0,1-1.21-3.45A5.1,5.1,0,0,1,200,73.38,4.29,4.29,0,0,1,203.41,72a4.2,4.2,0,0,1,2.69.87,3.6,3.6,0,0,1,1.34,2.5Z"/><path class="cls-2" d="M219.3,80.49a3.3,3.3,0,0,1-1.22,1,3,3,0,0,1-1.34.3,4.29,4.29,0,0,1-3.38-1.43,5,5,0,0,1-1.22-3.45,5.11,5.11,0,0,1,1.22-3.52A4.29,4.29,0,0,1,216.74,72a4,4,0,0,1,2.59.86,3.43,3.43,0,0,1,1.34,2.45h-2a1.84,1.84,0,0,0-2-1.58,2.24,2.24,0,0,0-2,1,4,4,0,0,0-.57,2.23,3.77,3.77,0,0,0,.57,2.16,2.25,2.25,0,0,0,2,1A2,2,0,0,0,219,78h-2.07V76.48h3.93v5.07h-1.31Z"/><path class="cls-2" d="M222.48,72.17h2.05v9.38h-2.05Z"/><path class="cls-2" d="M228.89,72.17H231l3.49,9.38h-2.13l-.71-2.09h-3.49l-.73,2.09h-2.08Zm-.2,5.76h2.42l-1.17-3.45h0Z"/><path class="cls-2" d="M238.93,72.17h2v3.6h3.78v-3.6h2.06v9.38h-2.06v-4H241v4h-2Z"/><path class="cls-2" d="M251.17,72.17h2.11l3.49,9.38h-2.13l-.71-2.09h-3.49l-.73,2.09h-2.08Zm-1.33-2.74h1.9l1.07,1.86h-1Zm1.13,8.5h2.43l-1.18-3.45h0Z"/><path class="cls-2" d="M261.21,72.17h2l3.9,6.3h0v-6.3h1.93v9.38H267l-3.88-6.28h0v6.28h-1.92Z"/><path class="cls-2" d="M271.7,73.38a4.71,4.71,0,0,1,6.76,0,5.1,5.1,0,0,1,1.21,3.52,5,5,0,0,1-1.21,3.45,4.71,4.71,0,0,1-6.76,0,5,5,0,0,1-1.21-3.45A5.1,5.1,0,0,1,271.7,73.38Zm1.42,5.68a2.45,2.45,0,0,0,3.92,0,3.7,3.7,0,0,0,.58-2.16,3.91,3.91,0,0,0-.58-2.23,2.44,2.44,0,0,0-3.92,0,4,4,0,0,0-.57,2.23A3.77,3.77,0,0,0,273.12,79.06Zm4.15-7.72h-1.15l-1-1-1,1h-1.15l1.3-1.86H276Zm-1.38,12.41h-1.62V82.51h1.62Z"/><path class="cls-2" d="M281.07,72.17h2.06v9.38h-2.06Z"/><path class="cls-2" d="M50.27,0a50.24,50.24,0,1,0,50.21,50.27A50.4,50.4,0,0,0,50.27,0Zm.08,97.68A47.48,47.48,0,1,1,97.76,50.27,47.69,47.69,0,0,1,50.35,97.68Z"/><path class="cls-2" d="M31.78,10.23c0,19.52-.07,38.83-.07,58.2C30,65.72,26.94,65,24.15,64.57H7.85L9,67.22l15.11-.14a7.85,7.85,0,0,1,7.64,5.07v4.43C30,73.94,27,73.22,24.29,72.87L11.6,72.8l1.53,2.43,11.09-.15a7.84,7.84,0,0,1,7.49,5V84c-1.54-2.72-4.12-3.78-7.42-3.86L16.81,80l2.64,2.71,5.06-.14c4.78.5,7.34,3.29,8.22,8.22V91c.08.15.08.36.16.57l-.08-.93a.81.81,0,0,0,.08-.43v.22L34,87.32a9.32,9.32,0,0,1,8.37-4.66H81.24L83.74,80c-15.34,0-26.2.07-41.46.07-3,.36-6,1-8.08,3.21V79.37a9.5,9.5,0,0,1,8.15-4.21H87.48l1.69-2.65c-15.34,0-31.63.08-46.89.08-3,.35-6,1-8.08,3.21V71.51a9.49,9.49,0,0,1,8.15-4.22H91.67l1-2.64c-15.34,0-35.08.06-50.34.06-3,.36-6,1-8.08,3.23V8.87Z"/><path class="cls-2" d="M40,56.44h-.82V55H40V51.46h3.81a3.79,3.79,0,0,1,2.86,1.08,4.43,4.43,0,0,1,1.15,3.28,4.78,4.78,0,0,1-1,3.19,3.7,3.7,0,0,1-3,1.27H40ZM42,55h2v1.44H42v2.2H43.7a2,2,0,0,0,1.53-.59A2.84,2.84,0,0,0,45.9,56a3.4,3.4,0,0,0-.55-2.12,2.35,2.35,0,0,0-2-.79H42Z"/><path class="cls-2" d="M48.88,51.46h1.94v3.38h3.57V51.46h2v8.82h-2V56.47H50.82v3.81H48.88Z"/><path class="cls-2" d="M65.07,61.11,63.82,60a4.26,4.26,0,0,1-2.14.51,4.06,4.06,0,0,1-3.19-1.34,4.67,4.67,0,0,1-1.15-3.24,4.84,4.84,0,0,1,1.15-3.32,4.46,4.46,0,0,1,6.39,0A4.84,4.84,0,0,1,66,55.91a4.72,4.72,0,0,1-1.16,3.25l1.11,1ZM62.54,57l1,.92a3.44,3.44,0,0,0,.54-2,3.72,3.72,0,0,0-.54-2.1,2.32,2.32,0,0,0-3.71,0,3.72,3.72,0,0,0-.54,2.1,3.55,3.55,0,0,0,.54,2,2.11,2.11,0,0,0,1.85.92h.45a.66.66,0,0,0,.33-.11L61.64,58Z"/><path class="cls-2" d="M73.42,59.28a3.21,3.21,0,0,1-1.15.94,3.06,3.06,0,0,1-1.28.27,4.06,4.06,0,0,1-3.19-1.34,4.67,4.67,0,0,1-1.15-3.24,4.84,4.84,0,0,1,1.15-3.32A4.05,4.05,0,0,1,71,51.24a3.87,3.87,0,0,1,2.46.81,3.24,3.24,0,0,1,1.26,2.31H72.86A1.73,1.73,0,0,0,71,52.88a2.1,2.1,0,0,0-1.85.93,3.72,3.72,0,0,0-.54,2.1,3.55,3.55,0,0,0,.54,2,2.11,2.11,0,0,0,1.85.92A1.88,1.88,0,0,0,73.1,57h-2V55.51h3.71v4.77H73.61Z"/><path class="cls-2" d="M76.11,51.46h2v3.38h3.57V51.46h1.94v8.82H81.63V56.47H78.06v3.81h-2Z"/><path class="cls-2" d="M85,51.46h1.93l3.69,5.92h0V51.46h1.82v8.82H90.48l-3.67-5.91h0v5.91H85Z"/><path class="cls-2" d="M114.2,97.74h-1.42l-3.32-9.41h1.35l2.7,8.16h0l2.72-8.16h1.3Z"/><path class="cls-2" d="M119.55,89.7h-1.12V88.33h1.12Zm-1.12,1.22h1.12v6.82h-1.12Z"/><path class="cls-2" d="M127.11,95.58a2.67,2.67,0,0,1-2.92,2.33,3,3,0,0,1-2.43-1,4,4,0,0,1-.84-2.57,3.64,3.64,0,0,1,.91-2.55,3,3,0,0,1,2.3-1,2.93,2.93,0,0,1,1.5.37,2.87,2.87,0,0,1,1,1,3.9,3.9,0,0,1,.49,1.26,4.81,4.81,0,0,1,.12,1.31H122.1a2.26,2.26,0,0,0,.49,1.57,2,2,0,0,0,1.64.67A1.59,1.59,0,0,0,126,95.58ZM126,93.68a2,2,0,0,0-.6-1.36,1.84,1.84,0,0,0-1.38-.56,1.82,1.82,0,0,0-1.38.57,2.18,2.18,0,0,0-.57,1.35Z"/><path class="cls-2" d="M129.92,90.92h1.36v1h-1.36v4.23c0,.4.28.6.85.6h.51v1h-.86a2,2,0,0,1-1.24-.27,1.53,1.53,0,0,1-.38-1.21V91.92h-1.16v-1h1.16v-2h1.12Z"/><path class="cls-2" d="M132.52,90.92h1.06V92h0a2.34,2.34,0,0,1,2.21-1.24,2.26,2.26,0,0,1,1.85.7,2.77,2.77,0,0,1,.5,1.79v4.48h-1.12V93.13a1.22,1.22,0,0,0-1.39-1.37,1.88,1.88,0,0,0-1.51.61,2.17,2.17,0,0,0-.51,1.52v3.85h-1.12Z"/><path class="cls-2" d="M145.89,97.72a1.56,1.56,0,0,1-.81.19c-.63,0-.94-.36-.94-1.06a3,3,0,0,1-2.41,1.06,2.52,2.52,0,0,1-1.59-.46,1.7,1.7,0,0,1-.66-1.46,1.75,1.75,0,0,1,.72-1.54,2.43,2.43,0,0,1,.74-.35,7.51,7.51,0,0,1,.85-.21l.88-.13a7.4,7.4,0,0,0,.73-.14c.46-.13.68-.37.68-.73a1,1,0,0,0-.49-.94,2.2,2.2,0,0,0-1-.19,2.15,2.15,0,0,0-1.18.27,1.23,1.23,0,0,0-.52,1h-1.12a2.11,2.11,0,0,1,.91-1.78,3.5,3.5,0,0,1,2-.5,6.26,6.26,0,0,1,.92.06,2.7,2.7,0,0,1,.83.28,1.6,1.6,0,0,1,.81,1.53v3.51c0,.51.12.76.36.76h.15l.19-.05Zm-1.82-3.5a2,2,0,0,1-.9.3l-1.13.17a2.31,2.31,0,0,0-1,.34,1,1,0,0,0-.41.88.85.85,0,0,0,.4.78,1.65,1.65,0,0,0,.92.22,2.25,2.25,0,0,0,1.59-.54,1.31,1.31,0,0,0,.49-1Z"/><path class="cls-2" d="M146.93,90.92H148v1h0a2.49,2.49,0,0,1,2.21-1.16,2.37,2.37,0,0,1,1.14.26,1.6,1.6,0,0,1,.73.9,2.38,2.38,0,0,1,2.14-1.16,2.54,2.54,0,0,1,1.64.46,1.82,1.82,0,0,1,.63,1.52v5h-1.12V93.27a1.83,1.83,0,0,0-.26-1.07,1.19,1.19,0,0,0-1.07-.44,1.56,1.56,0,0,0-1.78,1.74v4.24h-1.12V93.27a1.87,1.87,0,0,0-.26-1.08,1.16,1.16,0,0,0-1-.43,1.72,1.72,0,0,0-1.42.67,1.75,1.75,0,0,0-.41,1.07v4.24h-1.12Z"/><path class="cls-2" d="M162,88.33h1.33l5,7.64h0V88.33h1.18v9.41h-1.37l-4.92-7.56h0v7.56H162Z"/><path class="cls-2" d="M177.39,97.72a1.55,1.55,0,0,1-.8.19c-.63,0-1-.36-1-1.06a3,3,0,0,1-2.4,1.06,2.52,2.52,0,0,1-1.59-.46A1.7,1.7,0,0,1,171,96a1.75,1.75,0,0,1,.72-1.54,2.48,2.48,0,0,1,.73-.35,8.11,8.11,0,0,1,.85-.21l.88-.13c.34-.05.58-.1.74-.14.45-.13.68-.37.68-.73a1,1,0,0,0-.49-.94,2.23,2.23,0,0,0-1-.19,2.15,2.15,0,0,0-1.18.27,1.23,1.23,0,0,0-.52,1h-1.12a2.12,2.12,0,0,1,.9-1.78,3.55,3.55,0,0,1,2-.5,6.36,6.36,0,0,1,.92.06,2.64,2.64,0,0,1,.82.28,1.59,1.59,0,0,1,.82,1.53v3.51c0,.51.12.76.35.76h.16l.18-.05Zm-1.81-3.5a2,2,0,0,1-.9.3l-1.14.17a2.31,2.31,0,0,0-1,.34,1.05,1.05,0,0,0-.41.88.86.86,0,0,0,.41.78,1.61,1.61,0,0,0,.91.22,2.26,2.26,0,0,0,1.6-.54,1.31,1.31,0,0,0,.49-1Z"/><path class="cls-2" d="M180,90.92h1.36v1H180v4.23q0,.6.84.6h.52v1h-.86a2,2,0,0,1-1.24-.27,1.53,1.53,0,0,1-.38-1.21V91.92h-1.16v-1h1.16v-2H180Z"/><path class="cls-2" d="M183.78,89.7h-1.12V88.33h1.12Zm-1.12,1.22h1.12v6.82h-1.12Z"/><path class="cls-2" d="M186,91.8a3.46,3.46,0,0,1,4.93,0,4.25,4.25,0,0,1,0,5.07,3.44,3.44,0,0,1-4.93,0,4.21,4.21,0,0,1,0-5.07Zm1,4.44a2,2,0,0,0,3,0,2.72,2.72,0,0,0,.63-1.9,2.77,2.77,0,0,0-.63-1.91,2,2,0,0,0-3,0,2.81,2.81,0,0,0-.62,1.91A2.77,2.77,0,0,0,187,96.24Z"/><path class="cls-2" d="M193.08,90.92h1.06V92h0a2.34,2.34,0,0,1,2.21-1.24,2.26,2.26,0,0,1,1.85.7,2.77,2.77,0,0,1,.5,1.79v4.48h-1.12V93.13a1.22,1.22,0,0,0-1.39-1.37,1.88,1.88,0,0,0-1.51.61,2.17,2.17,0,0,0-.51,1.52v3.85h-1.12Z"/><path class="cls-2" d="M206.45,97.72a1.56,1.56,0,0,1-.81.19c-.63,0-.94-.36-.94-1.06a3,3,0,0,1-2.41,1.06,2.52,2.52,0,0,1-1.59-.46A1.7,1.7,0,0,1,200,96a1.75,1.75,0,0,1,.72-1.54,2.43,2.43,0,0,1,.74-.35,7.84,7.84,0,0,1,.84-.21l.89-.13a7.4,7.4,0,0,0,.73-.14c.46-.13.68-.37.68-.73a1,1,0,0,0-.49-.94,2.2,2.2,0,0,0-1-.19,2.15,2.15,0,0,0-1.18.27,1.23,1.23,0,0,0-.52,1H200.3a2.11,2.11,0,0,1,.91-1.78,3.5,3.5,0,0,1,2-.5,6.26,6.26,0,0,1,.92.06,2.55,2.55,0,0,1,.82.28,1.59,1.59,0,0,1,.82,1.53v3.51c0,.51.12.76.36.76h.15l.19-.05Zm-1.82-3.5a2,2,0,0,1-.9.3l-1.13.17a2.31,2.31,0,0,0-1,.34,1,1,0,0,0-.42.88.86.86,0,0,0,.41.78,1.65,1.65,0,0,0,.92.22,2.25,2.25,0,0,0,1.59-.54,1.31,1.31,0,0,0,.49-1Z"/><path class="cls-2" d="M207.56,88.33h1.12v9.41h-1.12Z"/><path class="cls-2" d="M221.78,94.34c0,2.42-1.23,3.63-3.71,3.63s-3.86-1.21-3.86-3.63v-6h1.25v6a2.29,2.29,0,0,0,2.61,2.57c1.64,0,2.46-.85,2.46-2.57v-6h1.25Z"/><path class="cls-2" d="M223.6,90.92h1.06V92h0a2.35,2.35,0,0,1,2.22-1.24,2.24,2.24,0,0,1,1.84.7,2.71,2.71,0,0,1,.51,1.79v4.48h-1.13V93.13a1.21,1.21,0,0,0-1.38-1.37,1.9,1.9,0,0,0-1.52.61,2.21,2.21,0,0,0-.5,1.52v3.85H223.6Z"/><path class="cls-2" d="M232.11,89.7H231V88.33h1.12ZM231,90.92h1.12v6.82H231Z"/><path class="cls-2" d="M236.92,97.74h-1.2l-2.53-6.82h1.25l1.92,5.69h0l1.86-5.69h1.18Z"/><path class="cls-2" d="M246,95.58a2.67,2.67,0,0,1-2.92,2.33,3,3,0,0,1-2.43-1,4,4,0,0,1-.84-2.57,3.68,3.68,0,0,1,.9-2.55,3,3,0,0,1,2.3-1,3,3,0,0,1,1.51.37,2.87,2.87,0,0,1,1,1,4.14,4.14,0,0,1,.49,1.26,4.81,4.81,0,0,1,.12,1.31H241a2.21,2.21,0,0,0,.49,1.57,2,2,0,0,0,1.64.67,1.59,1.59,0,0,0,1.76-1.33Zm-1.09-1.9a2,2,0,0,0-.59-1.36,1.84,1.84,0,0,0-1.38-.56,1.82,1.82,0,0,0-1.38.57,2.13,2.13,0,0,0-.57,1.35Z"/><path class="cls-2" d="M247.18,90.92h1.06v1.44h0a2.54,2.54,0,0,1,2.5-1.59V92a2.36,2.36,0,0,0-1.91.73,3.15,3.15,0,0,0-.56,2v3h-1.12Z"/><path class="cls-2" d="M252.3,95.59a1.16,1.16,0,0,0,.58,1,2.41,2.41,0,0,0,1.25.28,2.7,2.7,0,0,0,1.08-.18.86.86,0,0,0,.57-.83.94.94,0,0,0-.69-.87,5.32,5.32,0,0,0-.72-.22l-.82-.18a8.36,8.36,0,0,1-.82-.22,3.13,3.13,0,0,1-.71-.34,1.58,1.58,0,0,1-.7-1.36,1.69,1.69,0,0,1,.83-1.49,3.12,3.12,0,0,1,1.72-.45,3.54,3.54,0,0,1,1.92.44,2,2,0,0,1,.87,1.69h-1.12A1.1,1.1,0,0,0,255,92a2,2,0,0,0-1-.25,2.15,2.15,0,0,0-1,.18.72.72,0,0,0-.47.68q0,.52.72.81a5.51,5.51,0,0,0,.72.21l.39.09.4.09c.33.07.6.14.82.21a3.13,3.13,0,0,1,.71.35,1.58,1.58,0,0,1,.7,1.37,1.84,1.84,0,0,1-.94,1.69,3.72,3.72,0,0,1-2,.47,3.43,3.43,0,0,1-2-.53,2.13,2.13,0,0,1-.89-1.79Z"/><path class="cls-2" d="M259.39,89.7h-1.12V88.33h1.12Zm-1.12,1.22h1.12v6.82h-1.12Z"/><path class="cls-2" d="M262.69,90.92h1.36v1h-1.36v4.23q0,.6.84.6h.52v1h-.86a2,2,0,0,1-1.24-.27,1.5,1.5,0,0,1-.38-1.21V91.92h-1.16v-1h1.16v-2h1.12Z"/><path class="cls-2" d="M268,98.65q-.7,1.83-2,1.83a2.28,2.28,0,0,1-.78-.12v-1l.16,0,.17.05a1.12,1.12,0,0,0,.34,0,1,1,0,0,0,.92-.61l.46-1.16-2.7-6.79h1.27l2,5.58h0l1.91-5.58h1.19Z"/><path class="cls-2" d="M272.13,96.28h1.46v1.34a1.9,1.9,0,0,1-1.45,2.06V99a1.06,1.06,0,0,0,.62-.56,1.57,1.57,0,0,0,.15-.73h-.78Z"/><path class="cls-2" d="M279.39,88.33h1.26v4h5v-4h1.25v9.41h-1.25V93.43h-5v4.31h-1.26Z"/><path class="cls-2" d="M294.76,97.72a1.53,1.53,0,0,1-.8.19c-.63,0-.95-.36-.95-1.06a3,3,0,0,1-2.4,1.06,2.52,2.52,0,0,1-1.59-.46,1.7,1.7,0,0,1-.66-1.46,1.75,1.75,0,0,1,.72-1.54,2.48,2.48,0,0,1,.73-.35,8.11,8.11,0,0,1,.85-.21l.89-.13c.33-.05.57-.1.73-.14.45-.13.68-.37.68-.73a1,1,0,0,0-.49-.94,2.23,2.23,0,0,0-1-.19,2.15,2.15,0,0,0-1.18.27,1.23,1.23,0,0,0-.52,1h-1.12a2.12,2.12,0,0,1,.9-1.78,3.55,3.55,0,0,1,2-.5,6.36,6.36,0,0,1,.92.06,2.64,2.64,0,0,1,.82.28,1.59,1.59,0,0,1,.82,1.53v3.51c0,.51.12.76.35.76h.16l.18-.05ZM293,94.22a2,2,0,0,1-.9.3l-1.14.17a2.31,2.31,0,0,0-1,.34,1.05,1.05,0,0,0-.41.88.86.86,0,0,0,.41.78,1.61,1.61,0,0,0,.91.22,2.26,2.26,0,0,0,1.6-.54,1.31,1.31,0,0,0,.49-1Z"/><path class="cls-2" d="M295.81,90.92h1.06V92h0a2.35,2.35,0,0,1,2.22-1.24,2.24,2.24,0,0,1,1.84.7,2.71,2.71,0,0,1,.51,1.79v4.48h-1.13V93.13A1.21,1.21,0,0,0,299,91.76a1.9,1.9,0,0,0-1.52.61,2.21,2.21,0,0,0-.5,1.52v3.85h-1.12Z"/><path class="cls-2" d="M303.61,91.8a3.46,3.46,0,0,1,4.93,0,4.25,4.25,0,0,1,0,5.07,3.44,3.44,0,0,1-4.93,0,4.21,4.21,0,0,1,0-5.07Zm1,4.44a1.89,1.89,0,0,0,1.5.67,1.93,1.93,0,0,0,1.51-.67,2.77,2.77,0,0,0,.62-1.9,2.81,2.81,0,0,0-.62-1.91,1.93,1.93,0,0,0-1.51-.67,1.89,1.89,0,0,0-1.5.67,2.81,2.81,0,0,0-.62,1.91A2.77,2.77,0,0,0,304.57,96.24Z"/><path class="cls-2" d="M311.89,89.7h-1.12V88.33h1.12Zm-1.12,1.22h1.12v6.82h-1.12Z"/></g></g></svg>